HIERARCHY
ROOT pelvis
{
  OFFSET 0 100 0
  CHANNELS 6 Xposition Yposition Zposition Zrotation Xrotation Yrotation
  JOINT pelvis_right_femur
  {
    OFFSET -10.78128 -3.44521 -0.5502486
    CHANNELS 3 Zrotation Xrotation Yrotation
    JOINT right_femur_tibia
    {
      OFFSET -0.8047443 -44.0398 -0.1307829
      CHANNELS 3 Zrotation Xrotation Yrotation
      JOINT right_tibia_foot
      {
        OFFSET 3.006224 -47.83518 -5
        CHANNELS 3 Zrotation Xrotation Yrotation
        End Site
        {
          OFFSET 0 -5 15
        }
      }
    }
  }
  JOINT pelvis_left_femur
  {
    OFFSET 10.78128 -3.44521 -0.5502486
    CHANNELS 3 Zrotation Xrotation Yrotation
    JOINT left_femur_tibia
    {
      OFFSET 0.8047443 -44.0398 -0.1307829
      CHANNELS 3 Zrotation Xrotation Yrotation
      JOINT left_tibia_foot
      {
        OFFSET -4.370144 -48.10324 -4.275266
        CHANNELS 3 Zrotation Xrotation Yrotation
        End Site
        {
          OFFSET 0 -5 15
        }
      }
    }
  }
  JOINT pelvis_spine1
  {
    OFFSET 0 6.468898 -3.129235
    CHANNELS 3 Zrotation Xrotation Yrotation
    JOINT spine1
    {
      OFFSET 0 23.15396 4.99043
      CHANNELS 3 Zrotation Xrotation Yrotation
      JOINT spine2
      {
        OFFSET 0 20.79997 -5.064912
        CHANNELS 3 Zrotation Xrotation Yrotation
        JOINT neck
        {
          OFFSET 0 14.38658 9.616178
          CHANNELS 3 Zrotation Xrotation Yrotation
          End Site
          {
            OFFSET 0 20 0
          }
        }
      }
      JOINT right_manubrium
      {
        OFFSET -5.722621 16.35077 3.967754
        CHANNELS 3 Zrotation Xrotation Yrotation
        JOINT right_clavicle
        {
          OFFSET -13.16364 1.694482 -4.693211
          CHANNELS 3 Zrotation Xrotation Yrotation
          JOINT right_humerus
          {
            OFFSET -28.5034 -0.3100689 -2.792744
            CHANNELS 3 Zrotation Xrotation Yrotation
            JOINT right_radius
            {
              OFFSET -25.15693 0.02248979 -1.271978
              CHANNELS 3 Zrotation Xrotation Yrotation
              End Site
              {
                OFFSET -15 0 0
              }
            }
          }
        }
      }
      JOINT left_manubrium
      {
        OFFSET 5.722621 16.35077 3.967754
        CHANNELS 3 Zrotation Xrotation Yrotation
        JOINT left_clavicle
        {
          OFFSET 13.16364 1.694482 -4.693211
          CHANNELS 3 Zrotation Xrotation Yrotation
          JOINT left_humerus
          {
            OFFSET 29.39168 -1.063119 -2.237045
            CHANNELS 3 Zrotation Xrotation Yrotation
            JOINT left_radius
            {
              OFFSET 24.59957 -0.9528479 0.9047498
              CHANNELS 3 Zrotation Xrotation Yrotation
              End Site
              {
                OFFSET 15 -0 -0
              }
            }
          }
        }
      }
    }
  }
}
MOTION
Frames: 11
Frame Time: 0.0416666666667
0 103.5113 0 2.223369 -1.150815 0.2950912 1.164587 -9.859294 8.653432 -0 33.67823 -0 -5.262794 -17.86875 -2.173679 -8.078199 10.03182 -23.40715 -0 5.426643 -0 7.578491 -16.07781 26.44804 -4.349115 -5.089118 4.987206 2.016791 9.213337 -7.724931 0.8299411 22.80709 7.178114 3.264762 -23.08273 8.78845 6.358978 -19.715 11.57148 86.34638 35.95132 -19.82866 -0 0 16.18009 -7.574832 8.252645 4.614353 5.508226 -19.47977 -1.711652 -94.75541 29.7442 22.86237 0 0 -16.03496 3.48861 17.86916 9.547615
0.3412248 103.5035 1.455275 2.153504 -0.9672924 0.5381264 1.277276 -10.3079 8.432122 -0 32.1011 -0 -5.308345 -17.37558 -1.90989 -8.017744 10.02942 -23.11359 -0 6.064891 -0 7.247123 -16.1534 26.03571 -4.292599 -4.978976 4.985894 2.079442 9.186907 -7.713925 0.8369541 22.71274 7.200617 3.30752 -23.16588 8.778293 6.320364 -19.5836 11.56201 86.40228 35.93898 -19.93506 -0 0 15.95609 -7.61244 8.303812 4.634748 5.571561 -19.5158 -1.744458 -94.6165 29.69907 22.62774 0 0 -16.33544 3.5093 17.71911 9.514785
0.691195 103.484 3.078497 2.06131 -0.7281211 0.7841634 1.413732 -10.79076 8.134437 -0 29.95354 -0 -5.378962 -16.73637 -1.547205 -7.936748 9.975471 -22.69099 -0 7.058215 -0 6.757765 -16.18696 25.43652 -4.205328 -4.842338 4.989425 2.1551 9.153239 -7.696109 0.8422313 22.59385 7.226729 3.36103 -23.26493 8.75522 6.26639 -19.40038 11.54858 86.48525 35.92069 -20.07627 -0 0 15.64557 -7.671877 8.380107 4.668572 5.643499 -19.56116 -1.790372 -94.43043 29.63168 22.32223 0 0 -16.71346 3.527204 17.50929 9.481702
1.050531 103.4596 4.913642 1.955824 -0.4508722 1.040253 1.556277 -11.20065 7.779187 -0 27.35973 -0 -5.475981 -16.00844 -1.104192 -7.839975 9.841203 -22.14972 -0 8.425152 -0 6.117113 -16.13184 24.66387 -4.086202 -4.695212 5.000967 2.233418 9.115721 -7.670662 0.8428263 22.46324 7.252146 3.419279 -23.36532 8.714817 6.199377 -19.17336 11.53172 86.59433 35.89668 -20.24147 -0 0 15.26331 -7.754989 8.481093 4.71774 5.711128 -19.61086 -1.847473 -94.21001 29.54228 21.97222 0 0 -17.12801 3.53503 17.24844 9.457375
1.420202 103.4401 6.998828 1.844366 -0.150592 1.3142 1.692231 -11.45814 7.381702 -0 24.42764 -0 -5.599154 -15.23831 -0.5971894 -7.73052 9.604947 -21.50125 -0 10.16476 -0 5.338414 -15.95426 23.73704 -3.935866 -4.549532 5.023095 2.306449 9.077227 -7.636877 0.8367528 22.33098 7.273478 3.477519 -23.45579 8.654175 6.121352 -18.91077 11.51215 86.7268 35.86696 -20.42017 -0 0 14.82404 -7.863363 8.605695 4.783841 5.765055 -19.66093 -1.913922 -93.96615 29.43143 21.59951 0 0 -17.54723 3.527714 16.94467 9.448173
1.802066 103.4362 9.365654 1.73294 0.1590552 1.613574 1.813006 -11.50947 6.954448 -0 21.25199 -0 -5.745856 -14.46318 -0.04078297 -7.610136 9.248823 -20.75866 -0 12.25246 -0 4.443123 -15.63461 22.68358 -3.757408 -4.412895 5.058387 2.368418 9.040327 -7.593731 0.8230531 22.20459 7.288105 3.532202 -23.52782 8.571823 6.034021 -18.62207 11.49093 86.87666 35.83134 -20.60032 -0 0 14.3441 -7.999226 8.752057 4.868673 5.799531 -19.70816 -1.987758 -93.70822 29.29995 21.22206 0 0 -17.94795 3.502338 16.60557 9.457902
2.199432 103.457 12.03791 1.627508 0.4636109 1.944666 1.911714 -11.31546 6.507993 -0 17.91997 -0 -5.910173 -13.7155 0.5515847 -7.47988 8.75053 -19.93633 -0 14.64023 -0 3.46129 -15.1656 21.54091 -3.556999 -4.288964 5.110689 2.414763 9.007719 -7.539024 0.8016393 22.09025 7.293732 3.580633 -23.57389 8.467098 5.938734 -18.31919 11.46971 87.03262 35.78954 -20.76499 -0 0 13.84397 -8.167263 8.917535 4.975398 5.811855 -19.7495 -2.066604 -93.44473 29.14861 20.85588 0 0 -18.31327 3.457419 16.23824 9.4886
2.617565 103.5079 15.02959 1.535679 0.7453067 2.311328 1.98047 -10.83771 6.05199 -0 14.51772 -0 -6.08179 -13.02841 1.166938 -7.340582 8.073356 -19.04957 -0 17.25734 -0 2.431576 -14.54984 20.3579 -3.344644 -4.17799 5.186621 2.440966 8.982737 -7.468341 0.7730803 21.99417 7.287844 3.620534 -23.58535 8.339356 5.836441 -18.01805 11.45096 87.17564 35.74137 -20.88847 -0 0 13.35109 -8.376812 9.098675 5.109935 5.801602 -19.78136 -2.147315 -93.18424 28.97781 20.5173 0 0 -18.62944 3.392021 15.84915 9.541515
3.063992 103.5888 18.34248 1.467921 0.9817705 2.713788 2.008889 -10.02951 5.595988 -0 11.1344 -0 -6.245434 -12.43916 1.792293 -7.192646 7.16053 -18.11419 -0 20.01269 -0 1.399933 -13.79815 19.19431 -3.13439 -4.077364 5.296366 2.441779 8.969626 -7.374524 0.7384154 21.92343 7.267378 3.649759 -23.55116 8.187452 5.727673 -17.73924 11.43814 87.27805 35.68681 -20.93445 -0 0 12.90118 -8.643024 9.291215 5.28173 5.76997 -19.79918 -2.225806 -92.93589 28.78737 20.22445 0 0 -18.88369 3.305148 15.44415 9.617803
3.548347 103.6935 21.9647 1.437132 1.147883 3.147892 1.985137 -8.838112 5.149923 -0 7.859637 -0 -6.382166 -11.9872 2.414822 -7.03509 5.941408 -17.14596 -0 22.80295 -0 0.414859 -12.92829 18.11502 -2.942939 -3.982546 5.452531 2.41145 8.973191 -7.248519 0.6989866 21.88573 7.22892 3.666357 -23.45861 8.009881 5.612618 -17.50629 11.43524 87.30655 35.62596 -20.85964 -0 0 12.53527 -8.985073 9.490224 5.502702 5.719239 -19.79771 -2.297387 -92.70894 28.57674 19.99634 0 0 -19.064 3.195712 15.02844 9.718602
4.081608 103.8108 25.87128 1.456283 1.220839 3.605319 1.899213 -7.218675 4.724154 -0 4.774513 -0 -6.472858 -11.70686 3.022759 -6.864519 4.350238 -16.15968 -0 25.52709 -0 -0.4805947 -11.96328 17.1788 -2.786485 -3.888491 5.66695 2.344937 8.997788 -7.081723 0.656272 21.88777 7.169464 3.668959 -23.29628 7.8056 5.491356 -17.34134 11.44591 87.22971 35.55858 -20.62343 -0 0 12.29195 -9.421272 9.690492 5.784253 5.652256 -19.77221 -2.35762 -92.51147 28.34559 19.84976 0 0 -19.16081 3.063041 14.60664 9.844564
